<svg width="80" height="80" viewBox="0 0 80 80" fill="none" xmlns="http://www.w3.org/2000/svg">
  <!-- Gradient Definitions -->
  <defs>
    <linearGradient id="purpleGradient" x1="0%" y1="0%" x2="100%" y2="100%">
      <stop offset="0%" style="stop-color:#8B5CF6"/>
      <stop offset="100%" style="stop-color:#6D28D9"/>
    </linearGradient>
    <linearGradient id="waveGradient" x1="0%" y1="0%" x2="100%" y2="0%">
      <stop offset="0%" style="stop-color:#A78BFA"/>
      <stop offset="100%" style="stop-color:#7C3AED"/>
    </linearGradient>
    <filter id="shadow">
      <feDropShadow dx="0" dy="2" stdDeviation="3" flood-opacity="0.2"/>
    </filter>
  </defs>

  <!-- Background Circle with Gradient -->
  <circle cx="40" cy="40" r="30" fill="#F3F0FF"/>
  <circle cx="40" cy="40" r="28" fill="#F3F0FF" filter="url(#shadow)"/>
  
  <!-- Main Microphone Icon -->
  <rect x="35" y="25" width="10" height="20" rx="5" fill="url(#purpleGradient)" filter="url(#shadow)"/>
  <path d="M28 40C28 44.4183 31.5817 48 36 48H44C48.4183 48 52 44.4183 52 40" 
        stroke="url(#purpleGradient)" stroke-width="2.5" stroke-linecap="round"/>
  <path d="M40 48V55" stroke="url(#purpleGradient)" stroke-width="2.5" stroke-linecap="round"/>
  
  <!-- Animated Sound Waves -->
  <path d="M25 40C25 40 22 35 22 32C22 29 25 24 25 24" 
        stroke="url(#waveGradient)" stroke-width="2" stroke-linecap="round">
    <animate attributeName="opacity" values="0.3;1;0.3" dur="2s" repeatCount="indefinite"/>
  </path>
  <path d="M55 40C55 40 58 35 58 32C58 29 55 24 55 24" 
        stroke="url(#waveGradient)" stroke-width="2" stroke-linecap="round">
    <animate attributeName="opacity" values="0.3;1;0.3" dur="2s" repeatCount="indefinite" begin="0.5s"/>
  </path>
  
  <!-- Decorative Elements -->
  <circle cx="28" cy="35" r="2" fill="#C4B5FD">
    <animate attributeName="r" values="1.5;2;1.5" dur="2s" repeatCount="indefinite"/>
  </circle>
  <circle cx="52" cy="35" r="2" fill="#C4B5FD">
    <animate attributeName="r" values="2;1.5;2" dur="2s" repeatCount="indefinite"/>
  </circle>
  
  <!-- Additional Decorative Elements -->
  <circle cx="40" cy="62" r="1.5" fill="#8B5CF6" opacity="0.6"/>
  <circle cx="36" cy="60" r="1" fill="#8B5CF6" opacity="0.4"/>
  <circle cx="44" cy="60" r="1" fill="#8B5CF6" opacity="0.4"/>
</svg>
